<?xml version="1.0" encoding="UTF-8"?>
<svg width="33px" height="24px" viewBox="0 0 33 24" version="1.1" xmlns="http://www.w3.org/2000/svg" xmlns:xlink="http://www.w3.org/1999/xlink">
    <!-- Generator: Sketch 50.2 (55047) - http://www.bohemiancoding.com/sketch -->
    <title>Amex</title>
    <desc>Created with Sketch.</desc>
    <defs></defs>
    <g id="Updated-Artboards" stroke="none" stroke-width="1" fill="none" fill-rule="evenodd">
        <g transform="translate(-168.000000, -1546.000000)" id="Amex">
            <g transform="translate(168.000000, 1546.000000)">
                <rect id="Rectangle-10" stroke="#006FCF" fill="#006FCF" x="1.3" y="0.5" width="31" height="23" rx="2"></rect>
                <g id="Group-9" transform="translate(0.000000, 5.600000)">
                    <g id="Group-10">
                        <path d="M32.7941289,12.4653731 L32.8,7.35399854 L32.5192561,7.35347893 L12.9477775,7.33373386 L12.4407305,8.03104652 L11.9411559,7.33269465 L6.23180719,7.32697897 L6.22646985,12.7745393 L11.9134017,12.7797353 L12.409774,12.0720305 L12.9205571,12.7807745 L16.4805604,12.7844118 L16.4816279,11.6095803 L16.4442665,11.6095803 C16.8867317,11.6095803 17.2891669,11.5321588 17.6457009,11.4038159 L17.6440997,12.7859706 L20.1270286,12.7885686 L20.1275623,11.9961679 L20.751497,12.7890883 L31.5227754,12.8 C31.8328747,12.8 32.1237595,12.7490785 32.3842215,12.6571081 C32.5309982,12.605667 32.6687015,12.5412357 32.7941289,12.4653731 Z M28.8813277,5.47509946 L31.283129,5.47769749 L31.2890001,0.0296176017 L28.7249437,0.0275391735 L28.72441,0.898400585 L28.1549162,0.0264999594 L25.919106,0.0244215312 L25.9180385,1.12598847 L25.4189976,0.0239019242 L21.7239596,0.0202646748 C21.5462263,0.0197450678 21.3732966,0.032735244 21.2051705,0.0581959893 C21.0626637,0.0794998782 20.9233592,0.110676301 20.7888583,0.151205651 C20.6837128,0.182901681 20.5812359,0.221352602 20.4830289,0.264999594 C20.366675,0.316440692 20.2561921,0.376195502 20.1510466,0.444783632 L20.1515804,0.257205488 L20.1515804,0.0187058537 L8.09293637,0.00623528457 L7.76362272,0.956076967 L7.43057293,0.00571567752 L4.62420148,0.00311764228 L4.62313402,1.11611594 L4.11768827,0.00259803524 L1.82850471,0 L0.803202402,2.32939839 L0.800533734,4.9622473 L0.8,5.44704068 L2.42094905,5.4485995 L2.72304228,4.6671105 L3.29413727,4.6676301 L3.60050038,5.45015832 L16.0738554,5.46210928 L16.0749229,4.67022814 L16.6988575,5.46262889 L20.1457093,5.46626614 L20.1457093,5.29219778 L20.146243,5.07032557 C20.2348428,5.12644313 20.3277125,5.1758058 20.4211158,5.21841357 C20.5155867,5.26102135 20.6116587,5.29739385 20.7087983,5.32805066 C20.8294221,5.36650158 20.9521808,5.39559958 21.0738721,5.41742307 C21.272421,5.45223675 21.4704362,5.46782496 21.6588441,5.46782496 L23.7217246,5.46990339 L24.0238179,4.68841439 L24.5949129,4.68893399 L24.9007422,5.47146221 L28.3582687,5.47457985 L28.3593362,4.66659089 L28.8813277,5.47509946 Z" id="Fill-2" fill="#FFFFFF"></path>
                        <path d="M10.0740103,8.97767203 L10.0750874,8.28944228 L7.03165214,8.28704427 L7.02788218,11.6778347 L10.0707789,11.6807124 L10.071856,10.9972786 L7.94182832,10.9953602 L7.94236689,10.3128857 L10.0239237,10.3148041 L10.0244622,9.63616642 L7.94344402,9.63424801 L7.94398259,8.97575362 L10.0740103,8.97767203 Z M13.2397,11.68359 L14.3809209,11.6850288 L12.8557026,9.97332705 L14.373381,8.29375871 L13.2655511,8.2923199 L12.3289852,9.36710935 L11.4010364,8.29088109 L10.2598155,8.28992189 L11.7796481,9.98675593 L10.2614312,11.6807124 L11.3697996,11.6821512 L12.3063655,10.592494 L13.2397,11.68359 Z M14.5855759,8.29375871 L14.5818059,11.6850288 L15.4946749,11.6855084 L15.4957521,10.5665955 L16.6423586,10.5670751 C17.4744428,10.5680343 17.9909274,10.0845949 17.9914659,9.4304169 C17.9925431,8.75753443 17.4879069,8.29663632 16.677904,8.29567712 L14.5855759,8.29375871 Z M17.0732113,9.43425372 C17.0732113,9.66254456 16.9100258,9.85102839 16.5895792,9.85054879 L15.4968292,9.84958958 L15.4979063,9.01651984 L16.5906563,9.01747905 C16.911103,9.01795865 17.0737498,9.20212605 17.0732113,9.43425372 Z M19.3981998,10.4682769 L19.8274367,10.4687566 L20.9621948,11.690784 L22.0974915,11.6917432 L20.8334776,10.44046 C21.4802951,10.3344678 21.8664468,9.91817275 21.8664468,9.3757422 C21.8675239,8.74122794 21.3628878,8.29999354 20.5528848,8.29903434 L18.4880236,8.29759553 L18.4837151,11.688386 L19.3971227,11.6893452 L19.3981998,10.4682769 Z M20.4710228,8.99206011 C20.7968551,8.99206011 20.9702733,9.18102354 20.9702733,9.41411041 C20.9697348,9.64623807 20.795778,9.82992587 20.4699457,9.82992587 L19.3987384,9.82896667 L19.3998155,8.9906213 L20.4710228,8.99206011 Z M25.568548,8.99206011 L25.5690866,8.30383036 L22.5256513,8.30095275 L22.5218814,11.6922228 L25.5653166,11.6951004 L25.5663938,11.0116667 L23.4358275,11.0097483 L23.4369046,10.3267942 L25.5179228,10.3287126 L25.519,9.6505545 L23.4374432,9.64863609 L23.4379818,8.9896621 L25.568548,8.99206011 Z M28.0712633,11.0188607 L26.120578,11.0169423 L26.1195008,11.69558 L28.0427193,11.6970188 C28.8640321,11.697978 29.3535884,11.2529068 29.3546655,10.617913 C29.3552041,10.0126545 28.9151958,9.65870774 28.175745,9.65774854 L27.2957285,9.65726893 C27.0781479,9.65726893 26.9262724,9.53065384 26.9262724,9.33209836 C26.926811,9.12874685 27.0786865,8.99349892 27.2968056,8.99349892 L28.9485869,8.99493773 L29.2862677,8.30718758 L27.3242725,8.30574877 C26.5034982,8.30478957 26.0139419,8.74986079 26.0134034,9.36039492 C26.0123262,9.98531712 26.4744157,10.3440599 27.197171,10.3450191 L28.0718018,10.3454987 C28.2888438,10.3459783 28.4466436,10.4716342 28.446105,10.6754653 C28.446105,10.8836128 28.2883053,11.0193403 28.0712633,11.0188607 Z M31.6909639,11.022218 L29.7397401,11.0202996 L29.7392015,11.6989373 L31.6624199,11.7003761 C32.4831942,11.7013353 32.9732891,11.2557844 32.9738276,10.6212702 C32.9743662,10.0160117 32.5343579,9.66206496 31.7954457,9.66110575 L30.9148906,9.66062615 C30.69731,9.66014655 30.5459731,9.53401106 30.5459731,9.33545558 C30.5465116,9.13210407 30.6978486,8.99685614 30.9159678,8.99685614 L32.567749,8.99829494 L32.9059683,8.3105448 L30.9434346,8.30862639 C30.1231989,8.30814679 29.633104,8.75321801 29.6325655,9.36375213 C29.6314883,9.98867434 30.0935778,10.3474171 30.8168716,10.3478967 L31.6915025,10.3488559 C31.9085445,10.3488559 32.0658057,10.4749914 32.0658057,10.6788225 C32.0658057,10.88697 31.9080059,11.0226976 31.6909639,11.022218 Z" id="Fill-4" fill="#006FCF"></path>
                        <path d="M4.13081109,4.42104342 L5.1456898,4.42200168 L3.54380993,1.03262493 L2.35703515,1.03166667 L0.742382813,4.41816863 L1.70297855,4.41864776 L2.02122578,3.69276343 L3.80937075,3.69467996 L4.13081109,4.42104342 Z M2.6401581,2.29513663 L2.91529826,1.66124555 L3.18830968,2.29561576 L3.52039375,3.0459358 L2.31179934,3.04497754 L2.6401581,2.29513663 Z M6.2329458,2.10971271 L6.21272274,1.19505053 L7.25048544,4.42391821 L8.06685877,4.42487647 L9.11260427,1.21709059 L9.08972027,2.10731705 L9.08705934,4.42583474 L9.96250531,4.42631387 L9.9667628,1.03837451 L8.37712321,1.03741625 L7.66026866,3.43690717 L6.94341412,1.03597885 L5.35909639,1.03454146 L5.35537109,4.42200168 L6.23028487,4.42295995 L6.2329458,2.10971271 Z M13.7144166,1.72928224 L13.715481,1.04220756 L10.7075657,1.03933277 L10.7043726,4.42727213 L13.7112235,4.43014692 L13.7122879,3.7378018 L11.6069601,3.73588527 L11.6080244,3.06318454 L13.6643911,3.06510107 L13.6649233,2.38760902 L11.6085566,2.38569249 L11.6090888,1.72736571 L13.7144166,1.72928224 Z M15.274786,3.21219446 L15.6994704,3.21267359 L16.8207863,4.43254258 L17.9426344,4.43397997 L16.6925295,3.1839257 C17.3322171,3.07803762 17.7137944,2.66215141 17.7143266,2.12073273 C17.715391,1.48636253 17.2162005,1.04556148 16.416325,1.04460322 L14.3753916,1.04268669 L14.3716663,4.43062605 L15.2737216,4.43110518 L15.274786,3.21219446 Z M16.3349005,1.73694834 C16.656873,1.73694834 16.8287691,1.92572618 16.8282369,2.158105 C16.8282369,2.39096294 16.6558087,2.57447034 16.3338361,2.5739912 L15.2758504,2.57303294 L15.2769147,1.73599008 L16.3349005,1.73694834 Z M18.2273539,4.43397997 L19.1299414,4.43493824 L19.131538,2.94388078 L19.1331345,1.04699888 L18.2310792,1.04651975 L18.2289505,2.92375725 L18.2273539,4.43397997 Z M21.4337746,4.43733389 L21.4822035,4.43733389 L21.8531372,3.71624088 L21.5790614,3.71624088 C20.9617256,3.71576174 20.596646,3.36695396 20.5971782,2.7666021 L20.5971782,2.71868894 C20.5977104,2.18110331 20.9260692,1.77959105 21.5710786,1.78054932 L22.5476399,1.78150758 L22.5487043,1.0503528 L21.4965726,1.04939453 C20.3364071,1.04843627 19.7020414,1.7498849 19.700977,2.71293936 L19.700977,2.77091428 C19.6999126,3.77756972 20.3491795,4.43110518 21.4337746,4.43733389 Z M25.3692901,4.44068782 L26.3841688,4.44164608 L24.7833533,1.05226932 L23.5955141,1.05131106 L21.981394,4.43781303 L22.9425219,4.43877129 L23.2597048,3.71288695 L25.0483819,3.71432435 L25.3692901,4.44068782 Z M23.8791693,2.31478102 L24.1537773,1.68136908 L24.4267887,2.31526015 L24.7594049,3.0655802 L23.5508105,3.06462194 L23.8791693,2.31478102 Z M27.4767467,2.41491952 L27.4666351,2.13462755 L27.6539646,2.41491952 L29.0908668,4.44404174 L30.1440629,4.445 L30.1477882,1.05753977 L29.2670204,1.05658151 L29.2648916,3.01670878 L29.2750032,3.26825285 L29.1094933,3.01670878 L27.7039901,1.05514411 L26.5981076,1.05418585 L26.5943823,4.44164608 L27.4746179,4.44260434 L27.4767467,2.41491952 Z" id="Fill-7" fill="#006FCF"></path>
                    </g>
                </g>
            </g>
        </g>
    </g>
</svg>