<!-- Generated by IcoMoon.io -->
<svg version="1.1" xmlns="http://www.w3.org/2000/svg" width="51" height="32" viewBox="0 0 51 32">
<title>gb-flag</title>
<path fill="#fff" d="M2.133 0h46.933c1.178 0 2.133 0.955 2.133 2.133v27.733c0 1.178-0.955 2.133-2.133 2.133h-46.933c-1.178 0-2.133-0.955-2.133-2.133v-27.733c0-1.178 0.955-2.133 2.133-2.133z"></path>
<path fill="#0a17a7" d="M0 0h59.733v42.667h-59.733z"></path>
<path fill="#fff" d="M12.791 21.978l-16.591 0.068-0.911-12.132 16.909 0.019-22.63-15.266 2.752-4.083 26.88 18.131 0.041-18.050 12.781 0.049v18.291l26.997-18.21 2.468 3.661-22.848 15.411 17.229-0.055 0.021 12.209-16.932 0.019 22.675 15.294-2.752 4.083-26.848-18.108-0.021 18.080-12.815-0.096 0.021-18.323-27.036 18.236-2.468-3.661 23.083-15.567z"></path>
<path fill="#fff" d="M34.197 11.821v8.333h-17.131v-8.335z"></path>
<path fill="#e6273e" d="M0 19.2h22.895v12.8h5.515v-12.8h22.79v-6.4h-22.79v-12.8h-5.515v12.8h-22.895z"></path>
</svg>
