<svg id="Layer_1" data-name="Layer 1" xmlns="http://www.w3.org/2000/svg" xmlns:xlink="http://www.w3.org/1999/xlink" viewBox="0 0 32 24"><defs><style>.cls-1{fill:none;}.cls-2{clip-path:url(#clip-path);}.cls-3{clip-path:url(#clip-path-2);}.cls-4{fill:#ccc;}.cls-5{fill:#6c6bbd;}.cls-6{fill:#d32011;}.cls-7{fill:#0099df;}.cls-8{fill:#110f0d;}</style><clipPath id="clip-path"><path class="cls-1" d="M2.5,1A1.5,1.5,0,0,0,1,2.5v19A1.5,1.5,0,0,0,2.5,23h27A1.5,1.5,0,0,0,31,21.5V2.5A1.5,1.5,0,0,0,29.5,1Zm27,23H2.5A2.49,2.49,0,0,1,0,21.5V2.5A2.5,2.5,0,0,1,2.5,0h27A2.5,2.5,0,0,1,32,2.5v19A2.49,2.49,0,0,1,29.5,24Z"/></clipPath><clipPath id="clip-path-2"><rect class="cls-1" width="32" height="24"/></clipPath></defs><title>maestro_v3</title><g class="cls-2"><g class="cls-3"><rect class="cls-4" x="-5" y="-5" width="42" height="34"/></g></g><polygon class="cls-5" points="18.9 15.86 13.1 15.86 13.1 5.42 18.9 5.42 18.9 15.86"/><path class="cls-6" d="M13.46,10.64A6.63,6.63,0,0,1,16,5.42a6.64,6.64,0,1,0,0,10.44,6.65,6.65,0,0,1-2.54-5.22"/><path class="cls-7" d="M26.74,10.64A6.64,6.64,0,0,1,16,15.86,6.63,6.63,0,0,0,16,5.42a6.64,6.64,0,0,1,10.74,5.22"/><path class="cls-8" d="M20.87,18.81a.84.84,0,0,1,.27,0l-.12.37a.52.52,0,0,0-.24,0c-.25,0-.37.16-.37.45v1H20V18.85h.38v.21a.53.53,0,0,1,.47-.25Zm-1.42.39h-.62V20c0,.17.06.29.25.29a.69.69,0,0,0,.34-.1l.11.33a.85.85,0,0,1-.48.14c-.45,0-.61-.25-.61-.66v-.8h-.36v-.35h.36v-.53h.39v.53h.62v.35Zm-4.91.38a.46.46,0,0,1,.47-.43.44.44,0,0,1,.45.43Zm1.32.15a.86.86,0,1,0-1.72,0,.88.88,0,0,0,.91.93,1.09,1.09,0,0,0,.72-.25l-.19-.28a.9.9,0,0,1-.51.18.49.49,0,0,1-.53-.43h1.31c0-.05,0-.1,0-.15Zm1.68-.43a1.06,1.06,0,0,0-.55-.15c-.21,0-.33.08-.33.21s.13.15.3.17l.18,0c.38.06.61.22.61.53s-.29.58-.8.58a1.34,1.34,0,0,1-.77-.23l.19-.3a.91.91,0,0,0,.58.18c.26,0,.4-.07.4-.21s-.1-.15-.31-.18l-.18,0c-.39-.06-.6-.23-.6-.52s.28-.56.73-.56a1.35,1.35,0,0,1,.72.18l-.17.31Zm4.73-.13a.54.54,0,0,0-.22,0,.43.43,0,0,0-.17.12.57.57,0,0,0-.12.18.56.56,0,0,0,0,.23.59.59,0,0,0,0,.23.57.57,0,0,0,.12.18.34.34,0,0,0,.17.11.63.63,0,0,0,.44,0,.45.45,0,0,0,.29-.29.59.59,0,0,0,0-.23.56.56,0,0,0,0-.23.42.42,0,0,0-.11-.18.57.57,0,0,0-.18-.12.54.54,0,0,0-.22,0Zm0-.36a1,1,0,0,1,.38.07.77.77,0,0,1,.3.19.93.93,0,0,1,.27.67.94.94,0,0,1-.07.37.84.84,0,0,1-.2.29.79.79,0,0,1-.3.2,1.07,1.07,0,0,1-.76,0,.79.79,0,0,1-.3-.2,1,1,0,0,1-.2-.29.94.94,0,0,1-.07-.37.87.87,0,0,1,.07-.37,1,1,0,0,1,.2-.3.77.77,0,0,1,.3-.19,1,1,0,0,1,.38-.07Zm-10,.92a.53.53,0,0,1,.54-.56.52.52,0,0,1,.53.56.53.53,0,0,1-.53.57.54.54,0,0,1-.54-.57Zm1.43,0v-.88h-.38v.21a.69.69,0,0,0-.56-.25.93.93,0,0,0,0,1.85.67.67,0,0,0,.56-.26v.21h.38Zm-2.16.88v-1.1a.72.72,0,0,0-1.31-.39.64.64,0,0,0-.58-.31.57.57,0,0,0-.52.26v-.22H8.78v1.76h.38v-1a.41.41,0,0,1,.43-.47c.26,0,.39.16.39.46v1h.38v-1a.42.42,0,0,1,.44-.47c.26,0,.38.16.38.46v1Z"/></svg>