<?xml version="1.0" encoding="UTF-8"?>
<svg width="32px" height="24px" viewBox="0 0 32 24" version="1.1" xmlns="http://www.w3.org/2000/svg" xmlns:xlink="http://www.w3.org/1999/xlink">
    <!-- Generator: Sketch 50.2 (55047) - http://www.bohemiancoding.com/sketch -->
    <title>Mastercard</title>
    <desc>Created with Sketch.</desc>
    <defs>
        <polygon id="path-1" points="0 19.2 30.4 19.2 30.4 0 0 0"></polygon>
    </defs>
    <g id="Updated-Artboards" stroke="none" stroke-width="1" fill="none" fill-rule="evenodd">
        <g transform="translate(-126.000000, -1546.000000)" id="Mastercard">
            <g transform="translate(126.000000, 1546.000000)">
                <rect id="Rectangle-10" stroke="#CCCCCC" x="0.5" y="0.5" width="31" height="23" rx="2"></rect>
                <g id="Group-9" transform="translate(0.800000, 2.400000)">
                    <path d="M23.3681165,16.6891875 C23.3439417,16.4047648 23.5693136,16.1558949 23.871499,16.1328039 C23.8863159,16.1317043 23.9015226,16.1313378 23.9171193,16.1313378 C24.2426998,16.1786194 24.4657322,16.4652413 24.4162127,16.7716555 C24.3760513,17.0161271 24.1701753,17.2074527 23.9097109,17.2419059 C23.6063556,17.242639 23.3599283,17.0120953 23.3591484,16.7269395 C23.3591484,16.7130116 23.3599283,16.6994502 23.3603182,16.6858888 L23.3681165,16.6891875 Z M24.7862437,16.6891875 L24.7862437,15.2 L24.4349287,15.2 L24.4349287,16.0609652 C24.2968982,15.9007941 24.0867331,15.8109957 23.8675999,15.8197923 C23.3599283,15.8197923 22.9481762,16.2072083 22.9481762,16.6847892 C22.9481762,17.1627367 23.3599283,17.5501527 23.8675999,17.5501527 C24.0867331,17.5585828 24.2968982,17.4691509 24.4349287,17.3089798 L24.4349287,17.5087355 L24.7862437,17.5087355 L24.7862437,16.6891875 Z M19.8323514,16.6891875 C19.8081766,16.4047648 20.0331585,16.1558949 20.3357339,16.1328039 C20.3509407,16.1317043 20.3661474,16.1313378 20.3813542,16.1313378 C20.7092742,16.1610263 20.9498528,16.4351863 20.9182695,16.7437996 C20.8905855,17.0113622 20.6656035,17.2232132 20.3813542,17.2488699 C20.0779989,17.2496029 19.8315716,17.0190593 19.8307917,16.7339035 C19.8307917,16.719609 19.8311816,16.7053146 19.8323514,16.6910202 L19.8323514,16.6891875 Z M21.2504786,16.6891875 L21.2504786,15.8645082 L20.8991636,15.8645082 L20.8991636,16.0642639 C20.7611331,15.9040929 20.5505781,15.814661 20.3318348,15.823091 C19.8241631,15.823091 19.4120211,16.210507 19.4120211,16.6884545 C19.4120211,17.1660354 19.8241631,17.5534514 20.3318348,17.5534514 C20.5505781,17.5618815 20.7611331,17.4728161 20.8991636,17.3126451 L20.8991636,17.5124007 L21.2504786,17.5124007 L21.2504786,16.6891875 Z M25.3917845,17.3899817 L25.3917845,17.4310324 L25.4323358,17.4310324 C25.4393543,17.4332315 25.4471526,17.4332315 25.4545611,17.4310324 C25.4565106,17.4262676 25.4565106,17.4207697 25.4545611,17.4156384 C25.4565106,17.4108735 25.4565106,17.4053757 25.4545611,17.4002443 C25.4471526,17.3984117 25.4393543,17.3984117 25.4323358,17.4002443 L25.3917845,17.3899817 Z M25.4323358,17.3606597 C25.4494921,17.3599267 25.4662586,17.3646915 25.4799056,17.3745877 C25.4912132,17.3833842 25.4974519,17.3969456 25.4962821,17.410507 C25.497062,17.4222358 25.4919931,17.4332315 25.4838048,17.4416616 C25.4728871,17.4508247 25.4592401,17.455956 25.445203,17.4570556 L25.4982317,17.5138668 L25.4557308,17.5138668 L25.4069912,17.4570556 L25.3902248,17.4570556 L25.3902248,17.5138668 L25.3555222,17.5138668 L25.3555222,17.3624924 L25.4323358,17.3606597 Z M25.4214181,17.5655467 C25.4393543,17.5655467 25.4576804,17.562248 25.4740569,17.5552841 C25.4900435,17.5486866 25.5044704,17.539157 25.5165578,17.5277947 C25.5641277,17.479047 25.5641277,17.4042761 25.5165578,17.3555284 C25.5044704,17.3437996 25.4900435,17.3346365 25.4740569,17.3280391 C25.4576804,17.3210751 25.4393543,17.3174099 25.4214181,17.3177764 C25.403092,17.3177764 25.3851559,17.3210751 25.3683894,17.3280391 C25.3520129,17.33427 25.3368062,17.3437996 25.3243289,17.3555284 C25.2771489,17.4042761 25.2771489,17.479047 25.3243289,17.5277947 C25.3371961,17.5395235 25.3520129,17.5486866 25.3683894,17.5552841 C25.3851559,17.5607819 25.403482,17.5633476 25.4214181,17.562248 L25.4214181,17.5655467 Z M25.4214181,17.2745266 C25.445203,17.2745266 25.468988,17.2781918 25.4908233,17.2866219 C25.5118788,17.2946854 25.5309847,17.3064142 25.5477512,17.3210751 C25.5637377,17.3361026 25.576605,17.3533293 25.585963,17.372755 C25.604679,17.4134392 25.604679,17.4596213 25.585963,17.4999389 C25.576605,17.5193647 25.5637377,17.5369578 25.5477512,17.5519853 C25.5309847,17.5666463 25.5118788,17.5780086 25.4908233,17.5860721 C25.468988,17.5952352 25.445203,17.6 25.4214181,17.6 C25.3504533,17.599267 25.2865069,17.5604154 25.2568733,17.4999389 C25.2381573,17.4596213 25.2381573,17.4134392 25.2568733,17.372755 C25.2658413,17.3533293 25.2787086,17.3361026 25.2950851,17.3210751 C25.3114616,17.3064142 25.3305675,17.2946854 25.351623,17.2866219 C25.3738483,17.2767257 25.3972433,17.2708613 25.4214181,17.2693952 L25.4214181,17.2745266 Z M22.5992007,15.8249236 C22.4065818,15.8212584 22.2260503,15.9125229 22.1238921,16.06573 L22.1238921,15.8645082 L21.7756965,15.8645082 L21.7756965,17.5124007 L22.1270115,17.5124007 L22.1270115,16.582529 C22.1270115,16.3105681 22.2662118,16.1346365 22.5149787,16.1346365 C22.5964713,16.133537 22.6775739,16.1478314 22.7532178,16.1760538 L22.8701928,15.8663409 C22.7832414,15.8370189 22.6920009,15.8216249 22.5992007,15.8212584 L22.5992007,15.8249236 Z M9.0772776,16.6858888 C9.05310276,16.4014661 9.27808473,16.1525962 9.58066013,16.1295052 C9.59586688,16.1284056 9.61107364,16.1280391 9.62628039,16.1280391 C9.95420038,16.1577276 10.1943891,16.4318876 10.1628058,16.7405009 C10.1355117,17.0080635 9.9105297,17.219548 9.62628039,17.2452046 C9.32292516,17.2463042 9.07649777,17.0157605 9.07532802,16.7306048 C9.07532802,16.7159438 9.07610785,16.7016494 9.0772776,16.6873549 L9.0772776,16.6858888 Z M10.4954048,16.6858888 L10.4954048,15.8645082 L10.1440898,15.8645082 L10.1440898,16.0642639 C10.0060593,15.9040929 9.79550426,15.814661 9.57676096,15.823091 C9.06908935,15.823091 8.65694734,16.210507 8.65694734,16.6884545 C8.65694734,17.1660354 9.06908935,17.5534514 9.57676096,17.5534514 C9.79550426,17.5618815 10.0060593,17.4728161 10.1440898,17.3126451 L10.1440898,17.5124007 L10.4954048,17.5124007 L10.4954048,16.6858888 Z M15.2371825,16.1295052 C15.4836098,16.1221747 15.6902657,16.3039707 15.6980641,16.5359805 L15.6980641,16.5462431 L14.7595344,16.5462431 C14.7731815,16.3069029 14.9880257,16.1218082 15.2426413,16.1295052 L15.2371825,16.1295052 Z M15.2371825,15.823091 C14.7248318,15.823091 14.3715673,16.1676237 14.3715673,16.6840562 C14.3419336,17.1312156 14.7029965,17.516066 15.178305,17.5439218 C15.206379,17.5453879 15.234453,17.5457544 15.2625271,17.5446549 C15.5237713,17.5534514 15.7791667,17.47135 15.9803638,17.3141112 L15.7971029,17.0696396 C15.6524438,17.1784973 15.473472,17.2389737 15.2882616,17.2419059 C15.0227282,17.251069 14.7934572,17.0681735 14.7595344,16.8200367 L16.0677051,16.8200367 L16.0677051,16.6822236 C16.0677051,16.1657911 15.7351062,15.8212584 15.2426413,15.8212584 L15.2371825,15.823091 Z M17.7002866,16.6840562 C17.6765017,17.13708 18.0473125,17.5222969 18.5292496,17.5446549 C18.5577135,17.546121 18.5865674,17.546121 18.6154212,17.5446549 C18.8439124,17.5560171 19.0685045,17.4856445 19.2451368,17.3485644 L19.0618759,17.0905315 C18.930084,17.1847282 18.7698282,17.2367746 18.6041136,17.2386072 C18.2761936,17.2085522 18.0360049,16.9343922 18.0675882,16.6261454 C18.0952723,16.3585828 18.3202542,16.1467318 18.6041136,16.1210751 C18.7698282,16.1229078 18.930084,16.1749542 19.0618759,16.2691509 L19.2451368,16.0107514 C19.0685045,15.8736714 18.8439124,15.8036652 18.6154212,15.814661 C18.133874,15.792303 17.7240715,16.141234 17.7002866,16.5942578 C17.6991168,16.6213806 17.6991168,16.6485034 17.7002866,16.6752596 L17.7002866,16.6840562 Z M12.3931297,15.9953574 C12.1775057,15.8747709 11.9299086,15.8150275 11.6791921,15.823091 C11.2366366,15.823091 10.9656444,16.019548 10.9656444,16.3395235 C10.9656444,16.6081857 11.1633322,16.7701894 11.5551986,16.8218693 L11.7380695,16.8460599 C11.946675,16.8731827 12.0601408,16.9420892 12.0601408,17.0351863 C12.0601408,17.1627367 11.9061236,17.2452046 11.6464391,17.2452046 C11.4374437,17.2521686 11.2319576,17.1916921 11.0646833,17.0729383 L10.8818123,17.3313378 C11.1044548,17.4746487 11.3692083,17.5490531 11.6390307,17.5446549 C12.1443628,17.5446549 12.424323,17.3243739 12.424323,17.0109957 C12.424323,16.6976176 12.2102587,16.5788638 11.8312596,16.5275504 L11.6483887,16.5033598 C11.4838438,16.4828345 11.3372351,16.4344533 11.3372351,16.3310935 C11.3372351,16.2277337 11.4764354,16.1280391 11.6850408,16.1280391 C11.8776597,16.1302382 12.0667693,16.1786194 12.2340436,16.2691509 L12.3931297,15.9953574 Z M17.3068606,15.823091 C17.1142417,15.8194258 16.9337103,15.9106903 16.8307722,16.0642639 L16.8307722,15.8645082 L16.4833564,15.8645082 L16.4833564,17.5124007 L16.8346714,17.5124007 L16.8346714,16.582529 C16.8346714,16.3105681 16.9738717,16.1346365 17.2226386,16.1346365 C17.3041312,16.133537 17.3848439,16.1478314 17.4608777,16.1760538 L17.5774628,15.8645082 C17.4909013,15.8351863 17.3988809,15.8201588 17.3068606,15.8197923 L17.3068606,15.823091 Z M14.0569045,15.8645082 L13.4197805,15.8645082 L13.4197805,15.3653024 L13.0630066,15.3653024 L13.0630066,15.8645082 L12.6968748,15.8645082 L12.6968748,16.1639585 L13.0630066,16.1639585 L13.0630066,16.9439218 C13.0630066,17.3262065 13.2057162,17.5534514 13.65607,17.5534514 C13.8241241,17.553818 13.9890589,17.5098351 14.1317685,17.4262676 L14.0218119,17.1334148 C13.9200437,17.1905925 13.8038485,17.2228467 13.6853138,17.2265119 C13.5020529,17.2265119 13.4178309,17.1161881 13.4178309,16.9508858 L13.4178309,16.1606597 L14.0549549,16.1606597 L14.0569045,15.8645082 Z M8.35437194,17.5087355 L8.35437194,16.475504 C8.38400561,16.1452657 8.12354122,15.8542456 7.77183631,15.8260232 C7.74181272,15.8234575 7.71139922,15.823091 7.68098571,15.8249236 C7.43455832,15.8102627 7.1990486,15.9220525 7.06569707,16.1174099 C6.94443296,15.9279169 6.72296025,15.8157605 6.48784045,15.8249236 C6.27923498,15.8131949 6.07959761,15.9044594 5.96028308,16.06573 L5.96028308,15.8645082 L5.6,15.8645082 L5.6,17.5124007 L5.95521416,17.5124007 L5.95521416,16.5653024 C5.93025949,16.347587 6.09792369,16.1525962 6.32914433,16.1295052 C6.3517595,16.127306 6.37476459,16.126573 6.39815959,16.1280391 C6.65043573,16.1280391 6.79314526,16.2830788 6.79314526,16.5616371 L6.79314526,17.5105681 L7.14835943,17.5105681 L7.14835943,16.5653024 C7.1245745,16.3464875 7.29379837,16.1514966 7.52618876,16.1295052 C7.54763418,16.127306 7.56946952,16.1269395 7.59130486,16.1280391 C7.85098941,16.1280391 7.99018969,16.2830788 7.99018969,16.5616371 L7.99018969,17.5105681 L8.35437194,17.5087355 Z" id="Fill-2" fill="#000000"></path>
                    <mask id="mask-2" fill="white">
                        <use xlink:href="#path-1"></use>
                    </mask>
                    <g id="Clip-5"></g>
                    <polygon id="Fill-4" fill="#FF5F00" mask="url(#mask-2)" points="12 12.8 17.6 12.8 17.6 2.4 12 2.4"></polygon>
                    <path d="M12.7447376,7.99934785 C12.7432159,6.03597155 13.6486272,4.18083072 15.2,2.96829069 C12.4088224,0.784280547 8.36794897,1.26642037 6.17441892,4.0457256 C3.98050844,6.82465239 4.46516978,10.8479086 7.25634737,13.0319188 C9.58721082,14.8560271 12.8687561,14.8560271 15.2,13.0319188 C13.6482468,11.8193788 12.7428355,9.96348104 12.7447376,7.99934785" id="Fill-6" fill="#EB001B" mask="url(#mask-2)"></path>
                    <path d="M25.6,12.2632 L25.6,12 L25.5049226,12 L25.3940928,12.188 L25.283263,12 L25.1881857,12 L25.1881857,12.2632 L25.2540084,12.2632 L25.2540084,12.064 L25.356962,12.2352 L25.4278481,12.2352 L25.5313643,12.064 L25.5313643,12.2632 L25.6,12.2632 Z M24.9901547,12.2632 L24.9901547,12.0452 L25.1139241,12.0452 L25.1139241,12 L24.8,12 L24.8,12.0452 L24.9237693,12.0452 L24.9237693,12.2632 L24.9901547,12.2632 Z" id="Fill-7" fill="#F79E1B" mask="url(#mask-2)"></path>
                    <path d="M25.6,8.00092603 C25.6,11.5347769 22.7225868,14.4 19.1726106,14.4 C17.7316215,14.3996216 16.3328578,13.917922 15.2,13.0313376 C17.9910604,10.8476077 18.475321,6.82486773 16.2822634,4.04591916 C15.9657632,3.64519659 15.6024727,3.28382733 15.2,2.96862251 C17.99068,0.784514241 22.0313837,1.2662138 24.2255825,4.04440557 C25.1161198,5.17202904 25.6,6.5649089 25.6,7.99903404 L25.6,8.00092603 Z" id="Fill-8" fill="#F79E1B" mask="url(#mask-2)"></path>
                </g>
            </g>
        </g>
    </g>
</svg>