<svg enable-background="new 0 0 127.769 31.5" height="700" viewBox="0 0 700.00002 700" width="700" xmlns="http://www.w3.org/2000/svg"><g transform="matrix(5.6576075 0 0 5.6576075 -10.818785 755.05935)"><path d="m98.396 6.933h-7.026c-.479 0-.89.35-.964.824l-2.841 18.015c-.056.355.219.676.579.676h3.604c.335 0 .622-.244.674-.576l.807-5.107c.074-.474.483-.824.964-.824h2.223c4.628 0 7.298-2.239 7.996-6.678.314-1.941.014-3.467-.896-4.535-.998-1.175-2.77-1.795-5.12-1.795zm.811 6.579c-.384 2.522-2.31 2.522-4.173 2.522h-1.061l.744-4.708c.045-.285.29-.495.578-.495h.485c1.269 0 2.467 0 3.084.723.37.432.483 1.072.343 1.958z" fill="#009cde"/><path d="m48.288 6.933h-7.025c-.481 0-.89.35-.965.824l-2.841 18.015c-.056.355.219.676.579.676h3.354c.48 0 .889-.349.964-.823l.767-4.86c.075-.474.484-.824.964-.824h2.223c4.627 0 7.298-2.239 7.997-6.678.314-1.941.012-3.467-.896-4.535-1-1.175-2.771-1.795-5.121-1.795zm.811 6.579c-.384 2.522-2.31 2.522-4.173 2.522h-1.06l.743-4.708c.045-.285.291-.495.579-.495h.486c1.268 0 2.466 0 3.083.723.369.432.481 1.072.342 1.958z" fill="#003087"/><path d="m69.286 13.432h-3.363c-.289 0-.534.209-.579.494l-.147.94-.236-.341c-.728-1.058-2.352-1.41-3.973-1.41-3.716 0-6.891 2.816-7.509 6.766-.322 1.971.135 3.854 1.252 5.169 1.026 1.208 2.492 1.71 4.237 1.71 2.995 0 4.657-1.924 4.657-1.924l-.15.935c-.056.355.218.677.578.677h3.03c.48 0 .889-.349.965-.822l1.817-11.517c.056-.357-.219-.677-.579-.677zm-4.688 6.547c-.325 1.923-1.851 3.212-3.797 3.212-.976 0-1.757-.314-2.259-.907-.498-.59-.685-1.429-.527-2.363.303-1.905 1.854-3.237 3.771-3.237.955 0 1.73.316 2.243.917.514.604.717 1.449.569 2.378z" fill="#003087"/><path d="m119.394 13.432h-3.363c-.288 0-.533.209-.578.494l-.148.94-.235-.341c-.729-1.058-2.352-1.41-3.973-1.41-3.718 0-6.893 2.816-7.51 6.766-.321 1.971.135 3.854 1.252 5.169 1.026 1.208 2.492 1.71 4.237 1.71 2.995 0 4.657-1.924 4.657-1.924l-.15.935c-.057.355.219.677.578.677h3.03c.479 0 .889-.349.964-.822l1.818-11.517c.056-.357-.219-.677-.579-.677zm-4.688 6.547c-.325 1.923-1.851 3.212-3.797 3.212-.976 0-1.757-.314-2.26-.907-.496-.59-.685-1.429-.526-2.363.304-1.905 1.853-3.237 3.77-3.237.956 0 1.731.316 2.243.917.515.604.718 1.449.57 2.378z" fill="#009cde"/><path d="m87.204 13.432h-3.382c-.323 0-.626.16-.808.427l-4.664 6.87-1.978-6.601c-.123-.414-.504-.696-.935-.696h-3.324c-.401 0-.683.395-.555.774l3.724 10.929-3.502 4.941c-.274.388.004.924.479.924h3.379c.319 0 .619-.157.802-.42l11.246-16.229c.268-.389-.01-.919-.482-.919z" fill="#003087"/><path d="m123.359 7.427-2.883 18.344c-.057.355.218.676.578.676h2.9c.48 0 .889-.349.964-.822l2.843-18.016c.056-.355-.219-.677-.578-.677h-3.246c-.287.001-.533.211-.578.495z" fill="#009cde"/></g><g transform="matrix(5.6576075 0 0 5.6576075 -10.818785 755.05935)"><path d="m23.675 7.876c.378-2.412-.002-4.053-1.307-5.539-1.436-1.636-4.03-2.337-7.349-2.337h-9.635c-.678 0-1.256.494-1.362 1.164l-4.012 25.44c-.079.503.309.956.817.956h5.948l-.411 2.604c-.069.439.271.836.716.836h5.014c.593 0 1.098-.432 1.191-1.018l.049-.255.944-5.989.061-.331c.093-.586.598-1.019 1.191-1.019h.75c4.857 0 8.66-1.972 9.771-7.68.465-2.384.225-4.375-1.003-5.774-.372-.422-.834-.772-1.373-1.058z" fill="#009cde"/><path d="m23.675 7.876c.378-2.412-.002-4.053-1.307-5.539-1.436-1.636-4.03-2.337-7.349-2.337h-9.635c-.678 0-1.256.494-1.362 1.164l-4.012 25.44c-.079.503.309.956.817.956h5.948l1.494-9.475-.046.298c.106-.671.678-1.164 1.357-1.164h2.827c5.552 0 9.899-2.256 11.17-8.779.037-.193.069-.379.098-.564" fill="#012169"/><path d="m9.875 7.908c.063-.403.322-.733.67-.9.158-.076.335-.118.521-.118h7.553c.895 0 1.729.059 2.492.182.218.035.43.075.636.121.206.045.406.096.6.153.097.028.192.058.286.089.375.125.724.271 1.044.441.378-2.412-.002-4.053-1.307-5.539-1.438-1.636-4.032-2.337-7.351-2.337h-9.635c-.678 0-1.256.494-1.362 1.164l-4.012 25.44c-.079.503.309.956.817.956h5.948l1.494-9.475z" fill="#003087"/></g><g transform="matrix(5.19228116 0 0 5.19228116 -78.929159 421.619155)"><path d="m98.396 6.933h-7.026c-.479 0-.89.35-.964.824l-2.841 18.015c-.056.355.219.676.579.676h3.604c.335 0 .622-.244.674-.576l.807-5.107c.074-.474.483-.824.964-.824h2.223c4.628 0 7.298-2.239 7.996-6.678.314-1.941.014-3.467-.896-4.535-.998-1.175-2.77-1.795-5.12-1.795zm.811 6.579c-.384 2.522-2.31 2.522-4.173 2.522h-1.061l.744-4.708c.045-.285.29-.495.578-.495h.485c1.269 0 2.467 0 3.084.723.37.432.483 1.072.343 1.958z" fill="#009cde"/><path d="m48.288 6.933h-7.025c-.481 0-.89.35-.965.824l-2.841 18.015c-.056.355.219.676.579.676h3.354c.48 0 .889-.349.964-.823l.767-4.86c.075-.474.484-.824.964-.824h2.223c4.627 0 7.298-2.239 7.997-6.678.314-1.941.012-3.467-.896-4.535-1-1.175-2.771-1.795-5.121-1.795zm.811 6.579c-.384 2.522-2.31 2.522-4.173 2.522h-1.06l.743-4.708c.045-.285.291-.495.579-.495h.486c1.268 0 2.466 0 3.083.723.369.432.481 1.072.342 1.958z" fill="#003087"/><path d="m69.286 13.432h-3.363c-.289 0-.534.209-.579.494l-.147.94-.236-.341c-.728-1.058-2.352-1.41-3.973-1.41-3.716 0-6.891 2.816-7.509 6.766-.322 1.971.135 3.854 1.252 5.169 1.026 1.208 2.492 1.71 4.237 1.71 2.995 0 4.657-1.924 4.657-1.924l-.15.935c-.056.355.218.677.578.677h3.03c.48 0 .889-.349.965-.822l1.817-11.517c.056-.357-.219-.677-.579-.677zm-4.688 6.547c-.325 1.923-1.851 3.212-3.797 3.212-.976 0-1.757-.314-2.259-.907-.498-.59-.685-1.429-.527-2.363.303-1.905 1.854-3.237 3.771-3.237.955 0 1.73.316 2.243.917.514.604.717 1.449.569 2.378z" fill="#003087"/><path d="m119.394 13.432h-3.363c-.288 0-.533.209-.578.494l-.148.94-.235-.341c-.729-1.058-2.352-1.41-3.973-1.41-3.718 0-6.893 2.816-7.51 6.766-.321 1.971.135 3.854 1.252 5.169 1.026 1.208 2.492 1.71 4.237 1.71 2.995 0 4.657-1.924 4.657-1.924l-.15.935c-.057.355.219.677.578.677h3.03c.479 0 .889-.349.964-.822l1.818-11.517c.056-.357-.219-.677-.579-.677zm-4.688 6.547c-.325 1.923-1.851 3.212-3.797 3.212-.976 0-1.757-.314-2.26-.907-.496-.59-.685-1.429-.526-2.363.304-1.905 1.853-3.237 3.77-3.237.956 0 1.731.316 2.243.917.515.604.718 1.449.57 2.378z" fill="#009cde"/><path d="m87.204 13.432h-3.382c-.323 0-.626.16-.808.427l-4.664 6.87-1.978-6.601c-.123-.414-.504-.696-.935-.696h-3.324c-.401 0-.683.395-.555.774l3.724 10.929-3.502 4.941c-.274.388.004.924.479.924h3.379c.319 0 .619-.157.802-.42l11.246-16.229c.268-.389-.01-.919-.482-.919z" fill="#003087"/><path d="m123.359 7.427-2.883 18.344c-.057.355.218.676.578.676h2.9c.48 0 .889-.349.964-.822l2.843-18.016c.056-.355-.219-.677-.578-.677h-3.246c-.287.001-.533.211-.578.495z" fill="#009cde"/></g><g transform="matrix(9.87913016 0 0 9.87913016 232.256368 117.420127)"><path d="m23.675 7.876c.378-2.412-.002-4.053-1.307-5.539-1.436-1.636-4.03-2.337-7.349-2.337h-9.635c-.678 0-1.256.494-1.362 1.164l-4.012 25.44c-.079.503.309.956.817.956h5.948l-.411 2.604c-.069.439.271.836.716.836h5.014c.593 0 1.098-.432 1.191-1.018l.049-.255.944-5.989.061-.331c.093-.586.598-1.019 1.191-1.019h.75c4.857 0 8.66-1.972 9.771-7.68.465-2.384.225-4.375-1.003-5.774-.372-.422-.834-.772-1.373-1.058z" fill="#009cde"/><path d="m23.675 7.876c.378-2.412-.002-4.053-1.307-5.539-1.436-1.636-4.03-2.337-7.349-2.337h-9.635c-.678 0-1.256.494-1.362 1.164l-4.012 25.44c-.079.503.309.956.817.956h5.948l1.494-9.475-.046.298c.106-.671.678-1.164 1.357-1.164h2.827c5.552 0 9.899-2.256 11.17-8.779.037-.193.069-.379.098-.564" fill="#012169"/><path d="m9.875 7.908c.063-.403.322-.733.67-.9.158-.076.335-.118.521-.118h7.553c.895 0 1.729.059 2.492.182.218.035.43.075.636.121.206.045.406.096.6.153.097.028.192.058.286.089.375.125.724.271 1.044.441.378-2.412-.002-4.053-1.307-5.539-1.438-1.636-4.032-2.337-7.351-2.337h-9.635c-.678 0-1.256.494-1.362 1.164l-4.012 25.44c-.079.503.309.956.817.956h5.948l1.494-9.475z" fill="#003087"/></g></svg>