<?xml version="1.0" encoding="UTF-8"?>
<svg width="32px" height="24px" viewBox="0 0 32 24" version="1.1" xmlns="http://www.w3.org/2000/svg" xmlns:xlink="http://www.w3.org/1999/xlink">
    <!-- Generator: Sketch 50.2 (55047) - http://www.bohemiancoding.com/sketch -->
    <title>Visa</title>
    <desc>Created with Sketch.</desc>
    <defs></defs>
    <g id="Updated-Artboards" stroke="none" stroke-width="1" fill="none" fill-rule="evenodd">
        <g transform="translate(-85.000000, -1546.000000)" id="Visa">
            <g transform="translate(85.000000, 1546.000000)">
                <rect id="Rectangle-10" stroke="#CCCCCC" x="0.5" y="0.5" width="31" height="23" rx="2"></rect>
                <path d="M15.6363636,8 L13.9904133,16 L12,16 L13.6463609,8 L15.6363636,8 Z M24.3636364,13.0909091 L25.2867898,10.1818182 L25.8181818,13.0909091 L24.3636364,13.0909091 Z M26.1244217,16 L28,16 L26.3632077,8 L24.6323229,8 C24.243407,8 23.9151285,8.23119475 23.7691805,8.58687897 L20.7272727,16 L22.8562736,16 L23.2790628,14.8055627 L25.8801993,14.8055627 L26.1244217,16 Z M21.1013777,13.3528 C21.1096736,11.3104 18.3988939,11.198 18.4178559,10.2856 C18.4233865,10.008 18.6766086,9.7132 19.2300627,9.6376 C19.5050121,9.6 20.2603328,9.5712 21.1187596,9.9836 L21.4545455,8.3432 C20.9939262,8.168 20.4005728,8 19.663029,8 C17.7703817,8 16.4379043,9.052 16.4264481,10.558 C16.4145968,11.672 17.3777097,12.2928 18.1034023,12.6636 C18.849242,13.0428 19.1000938,13.2856 19.0969335,13.6248 C19.0917979,14.1444 18.5016049,14.3732 17.950916,14.3824 C16.9878031,14.398 16.4292134,14.1104 15.9836057,13.8936 L15.6363636,15.5888 C16.0839465,15.8036 16.9095847,15.9904 17.7668263,16 C19.7783813,16 21.094662,14.9612 21.1013777,13.3528 Z M13.4545455,8 L10.194844,16 L8.06736372,16 L6.46324527,9.61546813 C6.36571155,9.22214755 6.28104398,9.07821951 5.98470748,8.91278499 C5.50160428,8.64271313 4.70265783,8.38918472 4,8.23243551 L4.04814431,8 L7.47178546,8 C7.90798946,8 8.30061457,8.29860932 8.39980844,8.8155922 L9.24689919,13.4452774 L11.3407614,8 L13.4545455,8 Z" id="Fill-1" fill="#1A1F71"></path>
            </g>
        </g>
    </g>
</svg>